# xmcd
#
# Track frame offsets:
#	150
#	603
#	12019
#	27153
#	50960
#	65876
#	81916
#	97482
#	116073
#	130396
#	145896
#	164940
#	183905
#	184289
#	202427
#
# Disc length: 2819 seconds
#
# Revision: 0
# Processed by: cddbd v1.4PL0 Copyright (c) Steve Scherf et al.
# Submitted via: audiograbber 1.81.02
#
DISCID=ef0b010f
DTITLE=Four Fried Chickens And A Coke - Unplucked
DYEAR=1900
DGENRE=
TTITLE0=Bring Me...
TTITLE1=Grits Ain't Groceries
TTITLE2=You Can Have My Husband
TTITLE3=Homewrecker
TTITLE4=911
TTITLE5=Wish
TTITLE6=What Is Hip
TTITLE7=On The Move Again
TTITLE8=Vehicle
TTITLE9=You Ain't Got It
TTITLE10=Sweet Home Chicago
TTITLE11=Polk Salad Annie
TTITLE12=Got Any...
TTITLE13=The Real Funky Chicken
TTITLE14=The Making Of Unplucked
EXTD=
EXTT0=
EXTT1=
EXTT2=
EXTT3=
EXTT4=
EXTT5=
EXTT6=
EXTT7=
EXTT8=
EXTT9=
EXTT10=
EXTT11=
EXTT12=
EXTT13=
EXTT14=
PLAYORDER=
